# Blender 3.1.0
# www.blender.org
mtllib sphere2.mtl
o Sphere
v 0.000000 -0.000000 -1.000000
v 0.000000 -0.707107 -0.707107
v 0.707107 0.707107 0.000000
v 1.000000 -0.000000 0.000000
v 0.707107 -0.707107 0.000000
v -0.000000 1.000000 0.000000
v -0.000000 0.707107 0.707107
v -0.000000 -0.000000 1.000000
v -0.000000 -0.707107 0.707107
v 0.000000 -1.000000 0.000000
v -0.707107 0.707106 -0.000000
v -1.000000 -0.000000 -0.000000
v -0.707107 -0.707107 -0.000000
v 0.000000 0.707106 -0.707107
vn 0.3574 -0.8629 -0.3574
vn 0.6786 0.2811 -0.6786
vn 0.6786 -0.2811 -0.6786
vn 0.3574 0.8629 -0.3574
vn 0.3574 -0.8629 0.3574
vn 0.6786 0.2811 0.6786
vn 0.6786 -0.2811 0.6786
vn 0.3574 0.8629 0.3574
vn -0.3574 -0.8629 0.3574
vn -0.6786 0.2811 0.6786
vn -0.6786 -0.2811 0.6786
vn -0.3574 0.8629 0.3574
vn -0.3574 -0.8629 -0.3574
vn -0.6786 0.2811 -0.6786
vn -0.6786 -0.2811 -0.6786
vn -0.3574 0.8629 -0.3574
s 0
f 10//1 2//1 5//1
f 14//2 4//2 1//2
f 1//3 5//3 2//3
f 14//4 6//4 3//4
f 10//5 5//5 9//5
f 3//6 8//6 4//6
f 4//7 9//7 5//7
f 3//8 6//8 7//8
f 10//9 9//9 13//9
f 7//10 12//10 8//10
f 8//11 13//11 9//11
f 7//12 6//12 11//12
f 10//13 13//13 2//13
f 12//14 14//14 1//14
f 12//15 2//15 13//15
f 11//16 6//16 14//16
f 14//2 3//2 4//2
f 1//3 4//3 5//3
f 3//6 7//6 8//6
f 4//7 8//7 9//7
f 7//10 11//10 12//10
f 8//11 12//11 13//11
f 12//14 11//14 14//14
f 12//15 1//15 2//15
